<svg xmlns="http://www.w3.org/2000/svg" viewBox="0 0 360 720" width="360" height="720">
<rect width="360" height="720" fill="#1B1030"/>
<rect width="360" height="60" fill="#F5F0E6" fill-opacity="0.04"/>
<rect y="60" width="360" height="1" fill="#D8B15C" fill-opacity="0.34"/>
<circle cx="36" cy="30" r="15" fill="none" stroke="#D8B15C" stroke-opacity="0.7"/>
<rect x="62" y="20" width="122" height="7" fill="#F5F0E6" fill-opacity="0.55"/>
<rect x="62" y="34" width="60" height="5" fill="#9C93B0" fill-opacity="0.6"/>
<rect x="16" y="76" width="328" height="26" fill="none" stroke="#D8B15C" stroke-opacity="0.28"/>
<text x="180" y="93.5" text-anchor="middle" font-family="IBM Plex Mono, ui-monospace, Menlo, Consolas, monospace" font-size="9.5" letter-spacing="2.2" fill="#D8B15C">PLACEHOLDER · FIG. 08</text>
<rect x="16" y="118" width="147.0" height="50" fill="#F5F0E6" fill-opacity="0.06" stroke="#D8B15C" stroke-opacity="0.22"/><rect x="30" y="132" width="101.9" height="6" fill="#F5F0E6" fill-opacity="0.32"/><rect x="30" y="146" width="63.3" height="6" fill="#F5F0E6" fill-opacity="0.32"/><rect x="80.55927219428122" y="186.0920765697956" width="263.4" height="50" fill="#D8B15C" fill-opacity="0.14" stroke="#D8B15C" stroke-opacity="0.4"/><rect x="94.55927219428122" y="200.0920765697956" width="191.5" height="6" fill="#D8B15C" fill-opacity="0.55"/><rect x="94.55927219428122" y="214.0920765697956" width="91.4" height="6" fill="#D8B15C" fill-opacity="0.55"/><rect x="16" y="251.16542487218976" width="144.6" height="36" fill="#F5F0E6" fill-opacity="0.06" stroke="#D8B15C" stroke-opacity="0.22"/><rect x="30" y="265.16542487218976" width="78.7" height="6" fill="#F5F0E6" fill-opacity="0.32"/><rect x="16" y="300.59040423762053" width="226.7" height="36" fill="#F5F0E6" fill-opacity="0.06" stroke="#D8B15C" stroke-opacity="0.22"/><rect x="30" y="314.59040423762053" width="121.7" height="6" fill="#F5F0E6" fill-opacity="0.32"/><rect x="103.50529686408117" y="353.925270088017" width="240.5" height="64" fill="#D8B15C" fill-opacity="0.14" stroke="#D8B15C" stroke-opacity="0.4"/><rect x="117.50529686408117" y="367.925270088017" width="183.0" height="6" fill="#D8B15C" fill-opacity="0.55"/><rect x="117.50529686408117" y="381.925270088017" width="188.3" height="6" fill="#D8B15C" fill-opacity="0.55"/><rect x="117.50529686408117" y="395.925270088017" width="131.3" height="6" fill="#D8B15C" fill-opacity="0.55"/><rect x="16" y="431.4740048199892" width="254.7" height="36" fill="#F5F0E6" fill-opacity="0.06" stroke="#D8B15C" stroke-opacity="0.22"/><rect x="30" y="445.4740048199892" width="94.3" height="6" fill="#F5F0E6" fill-opacity="0.32"/><rect x="16" y="481.6603519041091" width="159.2" height="36" fill="#F5F0E6" fill-opacity="0.06" stroke="#D8B15C" stroke-opacity="0.22"/><rect x="30" y="495.6603519041091" width="97.3" height="6" fill="#F5F0E6" fill-opacity="0.32"/><rect x="99.63799315365031" y="530.978168360889" width="244.4" height="50" fill="#D8B15C" fill-opacity="0.14" stroke="#D8B15C" stroke-opacity="0.4"/><rect x="113.63799315365031" y="544.978168360889" width="183.9" height="6" fill="#D8B15C" fill-opacity="0.55"/><rect x="113.63799315365031" y="558.978168360889" width="145.6" height="6" fill="#D8B15C" fill-opacity="0.55"/>
<rect x="16" y="628" width="328" height="1" fill="#D8B15C" fill-opacity="0.28"/>
<text x="180" y="662" text-anchor="middle" font-family="IBM Plex Mono, ui-monospace, Menlo, Consolas, monospace" font-size="10" letter-spacing="2.6" fill="#9C93B0">MEMBER SCREENSHOT</text>
<text x="180" y="682" text-anchor="middle" font-family="IBM Plex Mono, ui-monospace, Menlo, Consolas, monospace" font-size="9" letter-spacing="1.8" fill="#9C93B0" fill-opacity="0.75">REPLACE WITH A REAL, PERMITTED ONE</text>
</svg>
